<?xml version="1.0" encoding="UTF-8" standalone="no"?><!DOCTYPE svg PUBLIC "-//W3C//DTD SVG 1.1//EN" "http://www.w3.org/Graphics/SVG/1.1/DTD/svg11.dtd"><svg width="100%" height="100%" viewBox="0 0 100 100" version="1.1" xmlns="http://www.w3.org/2000/svg" xmlns:xlink="http://www.w3.org/1999/xlink" xml:space="preserve" xmlns:serif="http://www.serif.com/" style="fill-rule:evenodd;clip-rule:evenodd;stroke-linejoin:round;"><path d="M12.5,16.667c0,-4.572 3.762,-8.333 8.333,-8.333l14.583,0l8.333,8.333l35.417,0c4.572,0 8.333,3.762 8.333,8.333l0,58.333c0,4.572 -3.762,8.333 -8.333,8.333l-58.333,0c-4.572,0 -8.333,-3.762 -8.333,-8.333l0,-66.667Z" style="fill:none;fill-rule:nonzero;stroke:#000;stroke-width:5px;"/><path d="M75,29.583c0,2.53 -2.054,4.583 -4.583,4.583l-40.833,0c-2.53,0 -4.583,-2.054 -4.583,-4.583c0,-2.53 2.054,-4.583 4.583,-4.583l40.833,0c2.53,0 4.583,2.054 4.583,4.583Z"/><circle cx="50" cy="54.167" r="14.583" style="fill:none;stroke:#000;stroke-width:4.17px;stroke-linejoin:miter;"/><path d="M75,78.75c0,2.53 -2.054,4.583 -4.583,4.583l-40.833,0c-2.53,0 -4.583,-2.054 -4.583,-4.583c0,-2.53 2.054,-4.583 4.583,-4.583l40.833,0c2.53,0 4.583,2.054 4.583,4.583Z"/></svg>